<?xml version="1.0" standalone="no"?>
<!DOCTYPE svg PUBLIC "-//W3C//DTD SVG 20010904//EN"
 "http://www.w3.org/TR/2001/REC-SVG-20010904/DTD/svg10.dtd">
<svg version="1.0" xmlns="http://www.w3.org/2000/svg"
 width="512.000000pt" height="512.000000pt" viewBox="0 0 512.000000 512.000000"
 preserveAspectRatio="xMidYMid meet">

<g transform="translate(0.000000,512.000000) scale(0.100000,-0.100000)"
fill="#000000" stroke="none">
<path d="M2509 5105 c-203 -110 -2149 -1241 -2161 -1257 -17 -19 -18 -95 -18
-1293 l0 -1273 23 -22 c20 -20 2013 -1176 2129 -1236 58 -30 96 -30 151 -3 33
17 1924 1107 2079 1199 21 12 46 36 58 54 19 32 20 48 20 584 l0 550 -26 31
c-21 25 -33 31 -65 31 -49 0 -84 -22 -98 -62 -6 -17 -11 -99 -11 -182 l-1
-151 -431 -236 -431 -237 -38 28 c-110 80 -300 58 -385 -43 -171 -203 -38
-501 222 -499 163 1 292 128 294 287 l0 50 383 211 382 210 3 -230 c1 -126 -1
-233 -5 -237 -14 -14 -1914 -1109 -1924 -1109 -5 0 -8 248 -7 621 l3 620 382
199 c210 109 396 208 412 219 16 12 39 41 50 64 19 39 21 61 21 214 l0 170
118 61 118 61 44 -29 c147 -97 351 -37 431 128 33 68 33 178 0 246 -55 112
-148 171 -271 171 -165 0 -284 -112 -297 -278 l-5 -63 -128 -67 c-137 -72
-182 -111 -199 -174 -6 -21 -11 -108 -11 -194 l0 -157 -329 -171 c-182 -94
-332 -171 -335 -171 -4 0 -6 197 -6 438 l0 437 353 183 c193 100 629 326 967
501 l615 320 5 -182 c3 -100 9 -190 14 -199 13 -28 53 -48 95 -48 32 0 44 6
65 31 l26 31 0 274 c0 299 -2 313 -57 352 -16 11 -188 112 -383 224 -195 113
-659 381 -1030 595 -371 214 -689 397 -707 406 -39 20 -69 21 -104 2z m1020
-760 c523 -302 948 -552 943 -556 -4 -4 -137 -74 -295 -157 l-288 -149 -307
175 c-169 96 -336 191 -372 211 l-65 37 -6 69 c-7 85 -34 149 -84 200 -56 56
-126 85 -206 85 -94 0 -154 -24 -215 -85 -179 -179 -67 -485 185 -503 75 -5
126 7 182 43 l35 23 318 -181 c174 -99 314 -183 309 -188 -4 -4 -256 -136
-559 -293 l-551 -286 -948 495 c-521 273 -952 498 -957 501 -13 8 -6 12 249
158 l221 128 216 -113 216 -112 0 -42 c0 -101 67 -203 167 -252 192 -93 423
50 423 263 0 80 -23 143 -72 199 -102 116 -277 138 -394 49 l-44 -34 -150 78
c-82 42 -150 79 -150 82 0 3 84 53 188 113 103 59 376 217 607 351 231 134
427 244 436 243 9 -1 444 -249 968 -552z m-615 -316 c56 -66 13 -159 -72 -159
-67 0 -108 57 -90 127 11 42 42 63 94 63 35 0 47 -5 68 -31z m-997 -144 c27
-31 31 -90 8 -121 -19 -28 -69 -48 -101 -40 -76 19 -100 111 -44 168 28 27 36
30 73 25 28 -4 49 -14 64 -32z m-667 -640 c360 -188 778 -406 928 -484 l272
-143 0 -314 0 -315 -172 90 c-95 50 -330 173 -523 273 l-350 183 -6 61 c-8 80
-40 144 -100 198 -64 58 -130 80 -218 74 -109 -8 -192 -63 -240 -160 -25 -50
-31 -74 -31 -128 0 -95 23 -155 85 -216 105 -106 264 -116 393 -26 l27 19 567
-296 567 -296 1 -747 0 -746 -952 549 c-524 303 -956 553 -961 558 -4 4 -6
104 -5 222 l3 215 470 -246 470 -245 7 -63 c9 -84 39 -142 99 -196 128 -115
327 -97 431 39 118 155 60 378 -119 457 -67 30 -167 27 -235 -6 -29 -14 -62
-32 -73 -40 -18 -13 -62 8 -537 257 l-518 271 0 788 0 789 33 -17 c17 -9 327
-171 687 -359z m2772 -454 c27 -24 33 -36 33 -70 0 -91 -105 -131 -166 -63
-83 93 40 216 133 133z m-2851 -150 c21 -22 29 -39 29 -65 0 -85 -106 -131
-165 -71 -19 18 -25 35 -25 69 0 37 5 48 31 70 43 36 91 35 130 -3z m2420
-1190 c39 -40 40 -89 1 -132 -21 -24 -36 -31 -64 -31 -66 0 -100 34 -100 100
0 28 7 43 31 64 43 39 92 38 132 -1z m-1746 -91 c8 -7 19 -27 25 -45 31 -95
-89 -167 -161 -96 -21 21 -29 39 -29 64 0 41 39 94 73 99 27 5 74 -7 92 -22z"/>
<path d="M4638 2915 c-85 -48 -51 -185 46 -185 54 0 101 45 101 99 0 74 -82
122 -147 86z"/>
</g>
</svg>
